<svg xmlns="http://www.w3.org/2000/svg" viewBox="0 0 256 256">
  <rect width="256" height="256" rx="32" fill="#222222"/>
  <g transform="translate(128,128) scale(3.2)">
    <path d="M5.2-18.8 C5.2-18.8 8-14 8-8 C8-2 5.5 3 2 6.5 C-1.5 10 -6 12 -9.5 12
      C-13 12 -16 10 -16 6.5 C-16 3 -13.5 0.5 -10.5 0.5 C-7.5 0.5 -5.5 2.5 -5.5 5
      C-5.5 7.5 -7 9 -9 9 C-8 9.5 -6.5 9.5 -5 9 C-2 8 0 5 0 1.5
      C0-2 -1.5-5.5 -3.5-8 C-5.5-10.5 -7-12 -7-14.5 C-7-17 -5.5-19.5 -3-21.5
      C-0.5-23.5 2.5-24 5.2-23.5 C5.2-23.5 5.2-18.8 5.2-18.8 Z"
      fill="white" stroke="white" stroke-width="1.5" stroke-linejoin="round"/>
    <line x1="5.2" y1="-23" x2="5.2" y2="30" stroke="white" stroke-width="3" stroke-linecap="round"/>
  </g>
</svg>
